<?xml version="1.0" encoding="UTF-8" ?>
<svg xmlns="http://www.w3.org/2000/svg" viewBox="0 0 89.99 56.33">
    <g data-name="Layer 2">
        <path fill="#c496a5" d="M21.48,20.11c2-7.8,7.3-10.9,13.4-12.7a.72.72,0,0,0,.5-.8l-.9-6.2s-.1-.5-.9-.4c-21.4,2.3-35.8,18.6-33.3,38.4,2.6,13.8,13.4,19.1,23.2,17.7a18.09,18.09,0,0,0,15.1-20.7,17.85,17.85,0,0,0-17.1-15.3Zm68.3,15.3a18.12,18.12,0,0,0-17.1-15.3c2.1-7.8,7.2-10.9,13.4-12.7a.72.72,0,0,0,.5-.8l-1-6.2s-.1-.5-.9-.4c-21.4,2.4-35.9,18.7-33.2,38.5,2.5,13.7,13.2,19,23.1,17.6a18.23,18.23,0,0,0,15.2-20.7Z" data-name="Layer 1"/>
    </g>
</svg>
